<svg xmlns="http://www.w3.org/2000/svg" width="1100" height="620" viewBox="0 0 1100 620">
  <rect width="100%" height="100%" fill="#ffffff"/>
  <text x="80" y="28" font-size="24" font-weight="700" fill="#111827">Progression de l'agent Q-learning</text>
  <text x="80" y="50" font-size="13" fill="#4b5563">Train moyenne mobile, eval checkpoints, meilleur eval 15.757, dernier eval 11.337</text>
  <rect x="80" y="60" width="990" height="480" fill="#f9fafb" stroke="#d1d5db"/>
  <line x1="80" y1="540.0" x2="1070" y2="540.0" stroke="#e5e7eb" stroke-width="1"/><text x="68" y="544.0" text-anchor="end" font-size="12" fill="#4b5563">0</text><line x1="80" y1="420.0" x2="1070" y2="420.0" stroke="#e5e7eb" stroke-width="1"/><text x="68" y="424.0" text-anchor="end" font-size="12" fill="#4b5563">5</text><line x1="80" y1="300.0" x2="1070" y2="300.0" stroke="#e5e7eb" stroke-width="1"/><text x="68" y="304.0" text-anchor="end" font-size="12" fill="#4b5563">10</text><line x1="80" y1="180.0" x2="1070" y2="180.0" stroke="#e5e7eb" stroke-width="1"/><text x="68" y="184.0" text-anchor="end" font-size="12" fill="#4b5563">15</text><line x1="80" y1="60.0" x2="1070" y2="60.0" stroke="#e5e7eb" stroke-width="1"/><text x="68" y="64.0" text-anchor="end" font-size="12" fill="#4b5563">20</text>
  <line x1="231.7" y1="540" x2="231.7" y2="546" stroke="#4b5563" stroke-width="1"/><text x="231.7" y="564" text-anchor="middle" font-size="12" fill="#4b5563">200</text><line x1="384.1" y1="540" x2="384.1" y2="546" stroke="#4b5563" stroke-width="1"/><text x="384.1" y="564" text-anchor="middle" font-size="12" fill="#4b5563">400</text><line x1="536.5" y1="540" x2="536.5" y2="546" stroke="#4b5563" stroke-width="1"/><text x="536.5" y="564" text-anchor="middle" font-size="12" fill="#4b5563">600</text><line x1="688.9" y1="540" x2="688.9" y2="546" stroke="#4b5563" stroke-width="1"/><text x="688.9" y="564" text-anchor="middle" font-size="12" fill="#4b5563">800</text><line x1="841.4" y1="540" x2="841.4" y2="546" stroke="#4b5563" stroke-width="1"/><text x="841.4" y="564" text-anchor="middle" font-size="12" fill="#4b5563">1000</text><line x1="993.8" y1="540" x2="993.8" y2="546" stroke="#4b5563" stroke-width="1"/><text x="993.8" y="564" text-anchor="middle" font-size="12" fill="#4b5563">1200</text>
  <line x1="80" y1="495.9" x2="1070" y2="495.9" stroke="#6b7280" stroke-width="2" stroke-dasharray="7 5"/>
  <text x="1070" y="487.9" text-anchor="end" font-size="13" fill="#374151">Baseline aleatoire: 1.836</text>
  <polyline points="80.0,173.7 80.8,338.5 81.5,388.7 82.3,407.9 83.0,364.4 83.8,379.4 84.6,383.4 85.3,359.1 86.1,340.4 86.9,353.6 87.6,339.1 88.4,326.7 89.1,338.9 89.9,345.4 90.7,333.5 91.4,322.8 92.2,315.0 93.0,308.1 93.7,318.8 94.5,326.1 95.2,330.9 96.0,336.5 96.8,343.2 97.5,348.6 98.3,341.3 99.1,340.9 99.8,327.4 100.6,328.3 101.3,329.6 102.1,340.7 102.9,330.2 103.6,320.1 104.4,319.5 105.2,327.8 105.9,316.3 106.7,315.0 107.4,314.0 108.2,312.8 109.0,312.8 109.7,326.1 110.5,337.7 111.2,348.3 112.0,360.6 112.8,358.8 113.5,359.6 114.3,361.3 115.1,350.7 115.8,338.6 116.6,339.5 117.3,352.6 118.1,364.4 118.9,377.6 119.6,376.4 120.4,373.6 121.2,375.1 121.9,386.2 122.7,385.0 123.4,396.0 124.2,386.0 125.0,398.2 125.7,410.2 126.5,410.6 127.3,409.5 128.0,399.3 128.8,397.8 129.5,399.4 130.3,400.5 131.1,400.9 131.8,389.2 132.6,388.8 133.3,389.2 134.1,386.8 134.9,395.7 135.6,395.9 136.4,383.1 137.2,383.2 137.9,370.3 138.7,357.9 139.4,346.9 140.2,333.6 141.0,321.7 141.7,336.0 142.5,336.3 143.3,336.3 144.0,323.7 144.8,326.0 145.5,337.7 146.3,327.5 147.1,339.3 147.8,340.4 148.6,326.6 149.4,313.4 150.1,313.3 150.9,313.3 151.6,301.3 152.4,301.5 153.2,313.4 153.9,302.8 154.7,289.0 155.5,288.1 156.2,286.1 157.0,286.3 157.7,297.5 158.5,298.5 159.3,310.4 160.0,310.5 160.8,309.0 161.5,310.4 162.3,323.1 163.1,323.5 163.8,322.2 164.6,324.2 165.4,335.7 166.1,334.4 166.9,334.8 167.6,336.5 168.4,351.3 169.2,338.6 169.9,347.9 170.7,360.8 171.5,348.1 172.2,349.7 173.0,363.0 173.7,363.5 174.5,365.0 175.3,366.6 176.0,365.3 176.8,354.9 177.6,355.4 178.3,352.5 179.1,353.2 179.8,353.0 180.6,351.5 181.4,352.8 182.1,362.7 182.9,349.8 183.6,336.5 184.4,336.5 185.2,325.0 185.9,312.0 186.7,323.6 187.5,320.6 188.2,319.0 189.0,321.1 189.7,320.8 190.5,321.0 191.3,308.4 192.0,309.5 192.8,309.2 193.6,320.0 194.3,322.3 195.1,323.6 195.8,322.9 196.6,334.7 197.4,339.3 198.1,337.6 198.9,339.5 199.7,342.1 200.4,341.6 201.2,344.0 201.9,343.3 202.7,356.6 203.5,344.2 204.2,344.1 205.0,356.6 205.8,355.7 206.5,357.4 207.3,370.6 208.0,371.4 208.8,370.2 209.6,380.6 210.3,394.0 211.1,393.4 211.8,407.8 212.6,396.4 213.4,395.6 214.1,409.3 214.9,409.1 215.7,409.1 216.4,405.9 217.2,406.9 217.9,394.1 218.7,390.5 219.5,378.0 220.2,364.2 221.0,364.2 221.8,360.5 222.5,359.6 223.3,373.9 224.0,359.4 224.8,347.7 225.6,345.8 226.3,345.1 227.1,333.2 227.9,320.8 228.6,310.3 229.4,297.9 230.1,297.5 230.9,294.9 231.7,307.2 232.4,308.2 233.2,308.2 233.9,318.4 234.7,318.8 235.5,308.5 236.2,319.3 237.0,333.4 237.8,336.9 238.5,350.3 239.3,364.9 240.0,378.8 240.8,382.6 241.6,397.0 242.3,396.1 243.1,411.4 243.9,421.9 244.6,423.2 245.4,424.2 246.1,422.9 246.9,435.3 247.7,447.7 248.4,460.9 249.2,458.1 250.0,457.3 250.7,443.0 251.5,439.5 252.2,435.3 253.0,425.1 253.8,425.8 254.5,438.6 255.3,438.0 256.1,434.5 256.8,420.5 257.6,418.2 258.3,415.8 259.1,401.8 259.9,386.4 260.6,384.3 261.4,383.7 262.1,383.0 262.9,385.0 263.7,384.8 264.4,371.0 265.2,384.4 266.0,383.5 266.7,371.1 267.5,357.9 268.2,359.5 269.0,361.9 269.8,363.8 270.5,353.5 271.3,342.0 272.1,341.2 272.8,324.8 273.6,323.6 274.3,326.1 275.1,315.6 275.9,328.8 276.6,328.8 277.4,316.9 278.2,317.3 278.9,331.2 279.7,319.8 280.4,318.4 281.2,317.0 282.0,302.7 282.7,303.8 283.5,303.1 284.2,290.6 285.0,279.1 285.8,291.3 286.5,291.3 287.3,278.2 288.1,264.4 288.8,277.1 289.6,289.9 290.3,291.7 291.1,303.7 291.9,306.4 292.6,306.2 293.4,305.9 294.2,317.4 294.9,316.9 295.7,304.7 296.4,319.3 297.2,319.2 298.0,306.8 298.7,307.6 299.5,309.4 300.3,297.6 301.0,311.9 301.8,298.5 302.5,306.4 303.3,318.6 304.1,319.1 304.8,307.1 305.6,307.2 306.4,318.6 307.1,319.4 307.9,315.7 308.6,302.0 309.4,314.4 310.2,302.6 310.9,302.0 311.7,289.4 312.4,289.3 313.2,277.8 314.0,277.8 314.7,291.1 315.5,290.1 316.3,303.4 317.0,315.8 317.8,329.6 318.5,316.3 319.3,329.7 320.1,329.7 320.8,339.9 321.6,333.8 322.4,320.8 323.1,330.6 323.9,343.0 324.6,342.9 325.4,345.9 326.2,357.3 326.9,346.5 327.7,347.6 328.5,347.8 329.2,361.8 330.0,349.2 330.7,364.2 331.5,351.0 332.3,350.1 333.0,336.8 333.8,337.0 334.5,336.7 335.3,323.8 336.1,312.0 336.8,308.6 337.6,319.9 338.4,307.8 339.1,308.7 339.9,312.0 340.6,312.5 341.4,314.1 342.2,316.7 342.9,304.0 343.7,315.2 344.5,314.2 345.2,315.1 346.0,330.0 346.7,330.5 347.5,331.8 348.3,329.7 349.0,342.7 349.8,342.0 350.6,355.5 351.3,369.9 352.1,383.9 352.8,384.5 353.6,372.0 354.4,371.9 355.1,384.0 355.9,372.5 356.7,373.6 357.4,373.7 358.2,361.3 358.9,348.4 359.7,360.1 360.5,372.6 361.2,361.4 362.0,361.7 362.7,350.4 363.5,338.7 364.3,326.2 365.0,314.2 365.8,323.1 366.6,309.1 367.3,308.4 368.1,319.2 368.8,317.5 369.6,304.8 370.4,291.3 371.1,279.1 371.9,278.4 372.7,278.5 373.4,278.7 374.2,278.5 374.9,278.8 375.7,277.9 376.5,288.5 377.2,299.0 378.0,299.1 378.8,287.7 379.5,275.3 380.3,287.6 381.0,298.2 381.8,311.5 382.6,321.1 383.3,321.2 384.1,320.2 384.8,311.4 385.6,324.1 386.4,327.6 387.1,317.0 387.9,317.8 388.7,317.8 389.4,328.5 390.2,328.5 390.9,329.1 391.7,342.4 392.5,343.4 393.2,330.8 394.0,343.3 394.8,345.2 395.5,347.6 396.3,336.0 397.0,348.7 397.8,348.7 398.6,359.3 399.3,355.6 400.1,345.9 400.9,333.6 401.6,324.8 402.4,324.8 403.1,324.7 403.9,337.9 404.7,336.7 405.4,332.8 406.2,332.8 407.0,333.3 407.7,333.3 408.5,323.6 409.2,335.9 410.0,322.5 410.8,319.7 411.5,318.7 412.3,330.1 413.0,328.3 413.8,327.4 414.6,326.0 415.3,326.9 416.1,315.0 416.9,314.1 417.6,314.0 418.4,316.9 419.1,316.9 419.9,316.0 420.7,315.2 421.4,315.2 422.2,315.2 423.0,313.5 423.7,311.6 424.5,313.0 425.2,324.5 426.0,324.9 426.8,324.8 427.5,322.9 428.3,320.2 429.1,328.9 429.8,319.3 430.6,319.4 431.3,307.9 432.1,311.8 432.9,313.6 433.6,302.1 434.4,311.7 435.2,319.5 435.9,328.1 436.7,329.1 437.4,317.6 438.2,329.1 439.0,329.1 439.7,329.1 440.5,330.0 441.2,330.8 442.0,319.4 442.8,310.7 443.5,300.0 444.3,286.7 445.1,273.3 445.8,273.4 446.6,274.3 447.3,264.7 448.1,269.3 448.9,269.3 449.6,270.3 450.4,281.8 451.2,281.2 451.9,278.5 452.7,290.9 453.4,280.3 454.2,271.6 455.0,262.9 455.7,263.7 456.5,262.7 457.3,251.3 458.0,251.3 458.8,249.5 459.5,249.6 460.3,249.7 461.1,260.2 461.8,260.2 462.6,272.5 463.3,285.9 464.1,299.2 464.9,309.8 465.6,309.5 466.4,321.3 467.2,315.5 467.9,314.3 468.7,314.1 469.4,301.5 470.2,298.8 471.0,287.2 471.7,271.8 472.5,283.5 473.3,296.6 474.0,308.8 474.8,302.2 475.5,303.0 476.3,313.9 477.1,313.7 477.8,328.2 478.6,327.1 479.4,340.3 480.1,342.8 480.9,341.7 481.6,341.6 482.4,329.9 483.2,317.4 483.9,319.1 484.7,320.2 485.5,307.2 486.2,295.6 487.0,295.8 487.7,295.8 488.5,296.8 489.3,286.1 490.0,274.6 490.8,277.5 491.5,266.5 492.3,254.2 493.1,239.9 493.8,231.2 494.6,231.2 495.4,230.0 496.1,230.0 496.9,229.3 497.6,229.4 498.4,225.6 499.2,211.4 499.9,222.6 500.7,222.5 501.5,223.4 502.2,221.4 503.0,209.8 503.7,208.9 504.5,208.9 505.3,213.7 506.0,214.6 506.8,210.0 507.6,210.9 508.3,211.0 509.1,235.9 509.8,235.0 510.6,247.9 511.4,258.9 512.1,261.7 512.9,264.5 513.6,262.7 514.4,251.0 515.2,251.0 515.9,238.9 516.7,238.8 517.5,229.2 518.2,242.3 519.0,231.0 519.7,230.9 520.5,230.0 521.3,244.8 522.0,244.9 522.8,245.8 523.6,259.2 524.3,259.2 525.1,259.1 525.8,261.0 526.6,260.2 527.4,260.1 528.1,247.6 528.9,248.6 529.7,247.6 530.4,248.6 531.2,259.8 531.9,272.2 532.7,273.1 533.5,275.0 534.2,276.0 535.0,276.9 535.8,276.0 536.5,273.2 537.3,267.1 538.0,268.1 538.8,264.5 539.6,265.5 540.3,263.6 541.1,263.7 541.8,273.3 542.6,260.0 543.4,260.1 544.1,259.1 544.9,261.0 545.7,260.9 546.4,270.6 547.2,283.8 547.9,283.8 548.7,270.9 549.5,257.1 550.2,244.8 551.0,232.5 551.8,239.3 552.5,251.6 553.3,249.7 554.0,249.7 554.8,263.9 555.6,278.5 556.3,272.5 557.1,271.5 557.9,262.9 558.6,262.0 559.4,251.3 560.1,263.6 560.9,253.0 561.7,254.0 562.4,266.3 563.2,276.9 563.9,277.9 564.7,278.8 565.5,270.1 566.2,257.8 567.0,271.0 567.8,280.1 568.5,287.8 569.3,288.8 570.0,287.9 570.8,294.4 571.6,293.1 572.3,294.1 573.1,292.2 573.9,279.9 574.6,277.0 575.4,277.0 576.1,289.9 576.9,289.0 577.7,288.0 578.4,287.9 579.2,284.8 580.0,285.8 580.7,296.3 581.5,284.0 582.2,274.4 583.0,274.4 583.8,287.3 584.5,299.6 585.3,306.4 586.1,302.8 586.8,293.6 587.6,286.7 588.3,295.7 589.1,304.5 589.9,304.5 590.6,292.4 591.4,293.3 592.1,294.3 592.9,304.8 593.7,295.9 594.4,308.3 595.2,295.4 596.0,302.2 596.7,315.2 597.5,314.2 598.2,303.0 599.0,302.2 599.8,303.8 600.5,302.8 601.3,301.8 602.1,301.8 602.8,288.0 603.6,274.7 604.3,280.3 605.1,281.2 605.9,294.7 606.6,294.7 607.4,295.6 608.2,300.0 608.9,299.6 609.7,312.9 610.4,312.9 611.2,326.7 612.0,315.1 612.7,326.9 613.5,314.6 614.2,327.9 615.0,331.7 615.8,320.6 616.5,320.7 617.3,322.5 618.1,332.9 618.8,319.8 619.6,320.2 620.3,330.0 621.1,329.0 621.9,329.9 622.6,329.8 623.4,316.4 624.2,317.5 624.9,304.1 625.7,315.5 626.4,304.9 627.2,292.5 628.0,293.0 628.7,279.8 629.5,278.0 630.3,276.2 631.0,284.9 631.8,273.1 632.5,272.1 633.3,269.8 634.1,260.2 634.8,271.7 635.6,283.2 636.4,282.4 637.1,271.8 637.9,271.8 638.6,281.0 639.4,271.2 640.2,270.3 640.9,269.4 641.7,270.5 642.4,270.5 643.2,271.3 644.0,283.5 644.7,281.6 645.5,281.6 646.3,292.0 647.0,288.3 647.8,289.2 648.5,290.1 649.3,278.1 650.1,280.0 650.8,279.1 651.6,279.2 652.4,280.4 653.1,280.6 653.9,267.3 654.6,264.8 655.4,277.3 656.2,290.5 656.9,291.7 657.7,291.0 658.5,290.4 659.2,302.0 660.0,316.2 660.7,329.4 661.5,329.6 662.3,316.4 663.0,305.6 663.8,296.2 664.5,309.6 665.3,298.4 666.1,288.9 666.8,298.8 667.6,298.0 668.4,305.9 669.1,307.4 669.9,321.2 670.6,322.2 671.4,323.5 672.2,322.3 672.9,334.9 673.7,339.2 674.5,325.7 675.2,313.5 676.0,313.4 676.7,304.5 677.5,305.2 678.3,294.5 679.0,278.4 679.8,264.2 680.6,265.0 681.3,275.4 682.1,286.8 682.8,285.8 683.6,282.9 684.4,282.7 685.1,280.8 685.9,270.2 686.7,282.1 687.4,284.9 688.2,286.4 688.9,285.1 689.7,295.6 690.5,295.4 691.2,307.3 692.0,296.7 692.7,284.4 693.5,285.5 694.3,294.3 695.0,305.1 695.8,305.3 696.6,305.5 697.3,315.2 698.1,318.3 698.8,319.4 699.6,314.9 700.4,305.4 701.1,292.2 701.9,293.2 702.7,290.5 703.4,303.3 704.2,318.9 704.9,329.5 705.7,331.5 706.5,331.5 707.2,319.1 708.0,306.8 708.8,296.3 709.5,283.4 710.3,272.5 711.0,271.5 711.8,268.8 712.6,282.0 713.3,273.4 714.1,261.7 714.8,271.4 715.6,282.0 716.4,284.8 717.1,284.8 717.9,283.8 718.7,296.2 719.4,304.9 720.2,319.3 720.9,328.8 721.7,322.1 722.5,310.3 723.2,307.1 724.0,297.4 724.8,296.3 725.5,286.6 726.3,298.1 727.0,298.0 727.8,297.9 728.6,298.8 729.3,297.8 730.1,298.7 730.9,300.5 731.6,288.1 732.4,299.1 733.1,309.7 733.9,300.9 734.7,291.2 735.4,290.3 736.2,302.7 737.0,301.8 737.7,294.0 738.5,285.3 739.2,272.9 740.0,276.6 740.8,275.6 741.5,287.9 742.3,288.7 743.0,299.3 743.8,287.5 744.6,286.6 745.3,287.4 746.1,288.4 746.9,297.2 747.6,306.8 748.4,305.9 749.1,306.0 749.9,306.9 750.7,306.0 751.4,294.1 752.2,283.5 753.0,282.7 753.7,282.6 754.5,281.7 755.2,269.3 756.0,280.8 756.8,280.7 757.5,280.7 758.3,278.8 759.1,264.6 759.8,264.6 760.6,250.4 761.3,239.9 762.1,241.7 762.9,242.6 763.6,242.5 764.4,229.3 765.2,229.1 765.9,220.4 766.7,210.7 767.4,224.3 768.2,222.4 769.0,234.7 769.7,244.3 770.5,255.8 771.2,269.5 772.0,281.0 772.8,280.1 773.5,270.4 774.3,270.4 775.1,270.4 775.8,268.5 776.6,278.1 777.3,280.0 778.1,291.5 778.9,303.0 779.6,316.4 780.4,315.5 781.2,313.5 781.9,312.6 782.7,313.6 783.4,314.6 784.2,314.6 785.0,313.7 785.7,324.4 786.5,311.7 787.3,313.6 788.0,300.4 788.8,291.7 789.5,281.1 790.3,267.3 791.1,255.8 791.8,269.6 792.6,269.6 793.3,278.3 794.1,267.8 794.9,267.9 795.6,257.3 796.4,269.7 797.2,260.1 797.9,261.0 798.7,261.9 799.4,262.8 800.2,251.5 801.0,263.2 801.7,263.1 802.5,275.5 803.3,273.7 804.0,286.3 804.8,274.8 805.5,285.4 806.3,285.3 807.1,298.0 807.8,297.1 808.6,297.1 809.4,298.1 810.1,298.1 810.9,295.9 811.6,295.9 812.4,287.2 813.2,286.2 813.9,286.2 814.7,287.2 815.5,273.8 816.2,273.8 817.0,274.4 817.7,262.0 818.5,262.0 819.3,273.8 820.0,275.4 820.8,273.4 821.5,261.1 822.3,262.8 823.1,255.5 823.8,255.9 824.6,251.2 825.4,250.8 826.1,238.5 826.9,239.0 827.6,238.1 828.4,237.6 829.2,244.7 829.9,238.6 830.7,238.2 831.5,249.7 832.2,256.4 833.0,257.3 833.7,256.3 834.5,256.3 835.3,266.6 836.0,254.1 836.8,253.2 837.6,252.8 838.3,246.3 839.1,232.5 839.8,237.5 840.6,237.5 841.4,243.3 842.1,245.0 842.9,244.5 843.6,239.7 844.4,243.6 845.2,249.3 845.9,255.5 846.7,262.6 847.5,262.6 848.2,262.6 849.0,263.7 849.7,263.2 850.5,257.0 851.3,262.6 852.0,274.0 852.8,275.0 853.6,287.5 854.3,282.8 855.1,282.8 855.8,289.4 856.6,289.9 857.4,285.6 858.1,286.1 858.9,282.7 859.7,288.1 860.4,282.3 861.2,279.7 861.9,279.7 862.7,292.0 863.5,288.1 864.2,282.3 865.0,280.1 865.8,273.4 866.5,284.8 867.3,284.2 868.0,283.6 868.8,287.5 869.6,286.8 870.3,275.4 871.1,270.6 871.8,270.5 872.6,263.8 873.4,261.7 874.1,267.0 874.9,260.3 875.7,266.0 876.4,270.8 877.2,271.3 877.9,270.3 878.7,270.0 879.5,275.7 880.2,276.6 881.0,282.3 881.8,269.5 882.5,274.9 883.3,275.3 884.0,271.5 884.8,271.9 885.6,266.7 886.3,265.5 887.1,260.1 887.9,256.8 888.6,257.9 889.4,258.4 890.1,257.6 890.9,261.5 891.7,261.7 892.4,263.0 893.2,262.7 893.9,262.7 894.7,257.0 895.5,257.9 896.2,258.4 897.0,266.0 897.8,266.3 898.5,270.7 899.3,265.9 900.0,265.4 900.8,265.5 901.6,265.0 902.3,278.0 903.1,282.8 903.9,288.6 904.6,288.4 905.4,283.6 906.1,293.7 906.9,299.0 907.7,298.6 908.4,302.9 909.2,303.3 910.0,298.9 910.7,298.8 911.5,294.1 912.2,294.8 913.0,300.5 913.8,306.6 914.5,305.7 915.3,304.7 916.1,303.6 916.8,297.9 917.6,285.9 918.3,291.8 919.1,286.5 919.9,286.0 920.6,287.1 921.4,278.9 922.1,279.2 922.9,273.0 923.7,271.9 924.4,271.4 925.2,273.1 926.0,273.5 926.7,273.6 927.5,275.1 928.2,281.7 929.0,280.7 929.8,274.5 930.5,279.4 931.3,272.2 932.1,270.4 932.8,264.3 933.6,264.4 934.3,271.7 935.1,271.7 935.9,283.7 936.6,285.1 937.4,289.8 938.2,290.2 938.9,290.7 939.7,289.7 940.4,290.6 941.2,284.9 942.0,290.2 942.7,285.4 943.5,290.7 944.2,290.5 945.0,284.3 945.8,279.0 946.5,285.6 947.3,279.0 948.1,286.6 948.8,294.0 949.6,288.7 950.3,290.1 951.1,292.7 951.9,292.7 952.6,293.6 953.4,292.4 954.2,290.9 954.9,290.8 955.7,296.5 956.4,291.7 957.2,297.0 958.0,302.2 958.7,302.5 959.5,296.7 960.3,309.6 961.0,309.5 961.8,310.1 962.5,305.6 963.3,300.6 964.1,313.8 964.8,312.3 965.6,300.0 966.4,293.3 967.1,291.4 967.9,290.1 968.6,299.2 969.4,305.0 970.2,299.0 970.9,304.3 971.7,303.3 972.4,303.4 973.2,311.9 974.0,303.4 974.7,296.7 975.5,290.4 976.3,285.2 977.0,290.4 977.8,290.6 978.5,299.8 979.3,286.9 980.1,288.3 980.8,300.2 981.6,298.8 982.4,298.6 983.1,285.8 983.9,291.7 984.6,291.7 985.4,302.3 986.2,302.5 986.9,309.1 987.7,299.9 988.5,299.6 989.2,300.1 990.0,293.9 990.7,293.5 991.5,293.9 992.3,288.5 993.0,297.4 993.8,298.3 994.5,298.4 995.3,297.1 996.1,296.7 996.8,291.0 997.6,280.9 998.4,282.0 999.1,285.6 999.9,286.0 1000.6,287.5 1001.4,291.2 1002.2,291.1 1002.9,284.7 1003.7,285.1 1004.5,275.0 1005.2,269.5 1006.0,267.9 1006.7,268.4 1007.5,263.5 1008.3,263.5 1009.0,264.4 1009.8,260.0 1010.6,264.0 1011.3,256.5 1012.1,256.2 1012.8,267.3 1013.6,268.2 1014.4,270.0 1015.1,272.2 1015.9,273.1 1016.7,273.1 1017.4,273.1 1018.2,261.5 1018.9,259.9 1019.7,272.2 1020.5,262.6 1021.2,263.2 1022.0,264.2 1022.7,264.2 1023.5,264.3 1024.3,274.8 1025.0,277.5 1025.8,276.6 1026.6,287.1 1027.3,297.6 1028.1,297.7 1028.8,307.3 1029.6,310.2 1030.4,311.2 1031.1,299.6 1031.9,297.7 1032.7,309.5 1033.4,319.1 1034.2,319.6 1034.9,329.3 1035.7,329.2 1036.5,329.2 1037.2,331.0 1038.0,330.9 1038.8,316.7 1039.5,316.7 1040.3,316.8 1041.0,316.7 1041.8,315.8 1042.6,326.5 1043.3,316.0 1044.1,303.7 1044.8,317.0 1045.6,316.1 1046.4,305.5 1047.1,316.2 1047.9,317.2 1048.7,315.3 1049.4,314.4 1050.2,326.7 1050.9,328.6 1051.7,317.0 1052.5,318.8 1053.2,305.5 1054.0,294.9 1054.8,294.8 1055.5,308.0 1056.3,321.2 1057.0,319.3 1057.8,332.2 1058.6,331.2 1059.3,343.6 1060.1,351.4 1060.9,351.4 1061.6,340.6 1062.4,350.2 1063.1,349.2 1063.9,347.5 1064.7,336.9 1065.4,346.5 1066.2,346.5 1067.0,336.0 1067.7,335.8 1068.5,336.8 1069.2,335.0 1070.0,324.5" fill="none" stroke="#2563eb" stroke-width="2.5"/>
  <polyline points="98.3,378.1 117.3,384.3 136.4,381.1 155.5,284.7 174.5,290.0 193.6,386.0 212.6,378.9 231.7,383.8 250.7,375.8 269.8,260.1 288.8,470.9 307.9,265.2 326.9,353.0 346.0,391.8 365.0,277.0 384.1,392.7 403.1,364.3 422.2,250.9 441.2,469.2 460.3,464.6 479.4,269.0 498.4,283.9 517.5,180.5 536.5,247.8 555.6,374.6 574.6,353.2 593.7,261.3 612.7,269.6 631.8,181.6 650.8,175.2 669.9,395.0 688.9,297.1 708.0,162.0 727.0,234.0 746.1,452.5 765.2,376.9 784.2,162.1 803.3,177.6 822.3,161.8 841.4,337.1 860.4,327.0 879.5,262.2 898.5,305.5 917.6,269.7 936.6,262.0 955.7,361.5 974.7,244.6 993.8,286.6 1012.8,338.3 1031.9,232.6 1050.9,296.2 1070.0,267.9" fill="none" stroke="#dc2626" stroke-width="2.5"/>
  <polyline points="98.3,378.1 117.3,378.1 136.4,378.1 155.5,284.7 174.5,284.7 193.6,284.7 212.6,284.7 231.7,284.7 250.7,284.7 269.8,260.1 288.8,260.1 307.9,260.1 326.9,260.1 346.0,260.1 365.0,260.1 384.1,260.1 403.1,260.1 422.2,250.9 441.2,250.9 460.3,250.9 479.4,250.9 498.4,250.9 517.5,180.5 536.5,180.5 555.6,180.5 574.6,180.5 593.7,180.5 612.7,180.5 631.8,180.5 650.8,175.2 669.9,175.2 688.9,175.2 708.0,162.0 727.0,162.0 746.1,162.0 765.2,162.0 784.2,162.0 803.3,162.0 822.3,161.8 841.4,161.8 860.4,161.8 879.5,161.8 898.5,161.8 917.6,161.8 936.6,161.8 955.7,161.8 974.7,161.8 993.8,161.8 1012.8,161.8 1031.9,161.8 1050.9,161.8 1070.0,161.8" fill="none" stroke="#16a34a" stroke-width="2" stroke-dasharray="5 4"/>
  <circle cx="98.3" cy="378.1" r="3.5" fill="#dc2626"/>
<circle cx="117.3" cy="384.3" r="3.5" fill="#dc2626"/>
<circle cx="136.4" cy="381.1" r="3.5" fill="#dc2626"/>
<circle cx="155.5" cy="284.7" r="3.5" fill="#dc2626"/>
<circle cx="174.5" cy="290.0" r="3.5" fill="#dc2626"/>
<circle cx="193.6" cy="386.0" r="3.5" fill="#dc2626"/>
<circle cx="212.6" cy="378.9" r="3.5" fill="#dc2626"/>
<circle cx="231.7" cy="383.8" r="3.5" fill="#dc2626"/>
<circle cx="250.7" cy="375.8" r="3.5" fill="#dc2626"/>
<circle cx="269.8" cy="260.1" r="3.5" fill="#dc2626"/>
<circle cx="288.8" cy="470.9" r="3.5" fill="#dc2626"/>
<circle cx="307.9" cy="265.2" r="3.5" fill="#dc2626"/>
<circle cx="326.9" cy="353.0" r="3.5" fill="#dc2626"/>
<circle cx="346.0" cy="391.8" r="3.5" fill="#dc2626"/>
<circle cx="365.0" cy="277.0" r="3.5" fill="#dc2626"/>
<circle cx="384.1" cy="392.7" r="3.5" fill="#dc2626"/>
<circle cx="403.1" cy="364.3" r="3.5" fill="#dc2626"/>
<circle cx="422.2" cy="250.9" r="3.5" fill="#dc2626"/>
<circle cx="441.2" cy="469.2" r="3.5" fill="#dc2626"/>
<circle cx="460.3" cy="464.6" r="3.5" fill="#dc2626"/>
<circle cx="479.4" cy="269.0" r="3.5" fill="#dc2626"/>
<circle cx="498.4" cy="283.9" r="3.5" fill="#dc2626"/>
<circle cx="517.5" cy="180.5" r="3.5" fill="#dc2626"/>
<circle cx="536.5" cy="247.8" r="3.5" fill="#dc2626"/>
<circle cx="555.6" cy="374.6" r="3.5" fill="#dc2626"/>
<circle cx="574.6" cy="353.2" r="3.5" fill="#dc2626"/>
<circle cx="593.7" cy="261.3" r="3.5" fill="#dc2626"/>
<circle cx="612.7" cy="269.6" r="3.5" fill="#dc2626"/>
<circle cx="631.8" cy="181.6" r="3.5" fill="#dc2626"/>
<circle cx="650.8" cy="175.2" r="3.5" fill="#dc2626"/>
<circle cx="669.9" cy="395.0" r="3.5" fill="#dc2626"/>
<circle cx="688.9" cy="297.1" r="3.5" fill="#dc2626"/>
<circle cx="708.0" cy="162.0" r="3.5" fill="#dc2626"/>
<circle cx="727.0" cy="234.0" r="3.5" fill="#dc2626"/>
<circle cx="746.1" cy="452.5" r="3.5" fill="#dc2626"/>
<circle cx="765.2" cy="376.9" r="3.5" fill="#dc2626"/>
<circle cx="784.2" cy="162.1" r="3.5" fill="#dc2626"/>
<circle cx="803.3" cy="177.6" r="3.5" fill="#dc2626"/>
<circle cx="822.3" cy="161.8" r="3.5" fill="#dc2626"/>
<circle cx="841.4" cy="337.1" r="3.5" fill="#dc2626"/>
<circle cx="860.4" cy="327.0" r="3.5" fill="#dc2626"/>
<circle cx="879.5" cy="262.2" r="3.5" fill="#dc2626"/>
<circle cx="898.5" cy="305.5" r="3.5" fill="#dc2626"/>
<circle cx="917.6" cy="269.7" r="3.5" fill="#dc2626"/>
<circle cx="936.6" cy="262.0" r="3.5" fill="#dc2626"/>
<circle cx="955.7" cy="361.5" r="3.5" fill="#dc2626"/>
<circle cx="974.7" cy="244.6" r="3.5" fill="#dc2626"/>
<circle cx="993.8" cy="286.6" r="3.5" fill="#dc2626"/>
<circle cx="1012.8" cy="338.3" r="3.5" fill="#dc2626"/>
<circle cx="1031.9" cy="232.6" r="3.5" fill="#dc2626"/>
<circle cx="1050.9" cy="296.2" r="3.5" fill="#dc2626"/>
<circle cx="1070.0" cy="267.9" r="3.5" fill="#dc2626"/>
  <text x="575.0" y="598" text-anchor="middle" font-size="14" fill="#374151">Episode</text>
  <text x="24" y="300.0" text-anchor="middle" transform="rotate(-90 24 300.0)" font-size="14" fill="#374151">Score</text>
  <rect x="785" y="72" width="270" height="86" fill="#ffffff" stroke="#d1d5db"/>
  <line x1="802" y1="94" x2="842" y2="94" stroke="#2563eb" stroke-width="3"/>
  <text x="852" y="99" font-size="13" fill="#111827">Train, moyenne mobile</text>
  <line x1="802" y1="119" x2="842" y2="119" stroke="#dc2626" stroke-width="3"/>
  <text x="852" y="124" font-size="13" fill="#111827">Evaluation moyenne</text>
  <line x1="802" y1="144" x2="842" y2="144" stroke="#16a34a" stroke-width="2" stroke-dasharray="5 4"/>
  <text x="852" y="149" font-size="13" fill="#111827">Meilleur eval conserve</text>
</svg>
